<?xml version="1.0" standalone="no"?>
<!DOCTYPE svg PUBLIC "-//W3C//DTD SVG 20010904//EN"
 "http://www.w3.org/TR/2001/REC-SVG-20010904/DTD/svg10.dtd">
<svg version="1.0" xmlns="http://www.w3.org/2000/svg"
 viewBox="0 0 2600.000000 2600.000000"
 preserveAspectRatio="xMidYMid meet">
<metadata>
Created by potrace 1.15, written by Peter Selinger 2001-2017
</metadata>
<g transform="translate(0.000000,2600.000000) scale(0.100000,-0.100000)"
fill="#000000" stroke="none">
<path d="M11660 24880 c-307 -29 -607 -115 -873 -249 -640 -323 -1105 -916
-1263 -1610 -13 -59 -30 -108 -38 -113 -8 -4 -38 -27 -68 -51 -291 -237 -700
-493 -967 -605 -289 -123 -404 -146 -854 -172 -188 -11 -409 -27 -492 -35
-412 -42 -639 -119 -701 -237 -26 -50 -14 -205 27 -372 54 -216 167 -336 354
-377 80 -18 321 -16 548 5 310 28 579 37 789 26 337 -18 1002 -71 1498 -121
168 -17 329 -32 359 -33 l54 -1 81 -85 c378 -401 847 -649 1391 -735 140 -22
447 -31 587 -16 126 13 285 43 396 73 41 11 75 18 77 16 6 -6 43 -225 57 -338
18 -142 17 -715 0 -875 -73 -668 -248 -1344 -568 -2204 -225 -601 -439 -1106
-981 -2310 -518 -1151 -725 -1623 -933 -2131 -427 -1041 -726 -1923 -935
-2760 -128 -513 -182 -810 -227 -1245 -20 -191 -16 -806 6 -990 98 -839 371
-1516 844 -2105 97 -120 347 -376 477 -489 437 -378 991 -681 1606 -879 171
-55 497 -139 652 -168 l97 -18 0 -718 0 -718 -405 0 c-455 0 -447 1 -513 -75
-84 -95 -142 -305 -142 -513 0 -79 2 -85 29 -113 l29 -29 1322 0 1322 0 30 31
31 30 -6 122 c-11 253 -72 424 -180 511 l-39 31 -419 3 -419 3 0 676 0 675 58
-6 c31 -3 233 -9 447 -12 518 -9 883 11 1332 72 159 21 414 64 481 81 l22 5 0
-746 0 -745 -419 -3 -419 -3 -39 -31 c-108 -87 -169 -258 -180 -511 l-6 -122
31 -30 30 -31 1322 0 1322 0 30 31 31 30 -6 127 c-14 270 -90 462 -208 523
-36 18 -62 19 -444 19 l-405 0 0 829 0 829 78 27 c826 294 1433 703 1895 1277
737 919 980 2229 652 3513 -128 501 -341 957 -604 1295 -36 47 -169 191 -296
320 -1204 1232 -2070 2352 -2680 3465 -413 754 -713 1597 -751 2107 -3 46 -14
124 -24 173 -72 346 -159 1224 -235 2370 -71 1089 -79 1463 -64 3023 9 890 9
1179 0 1265 -110 1029 -868 1880 -1868 2097 -225 49 -520 69 -723 50z m33
-1550 c193 -72 314 -279 278 -475 -35 -187 -174 -325 -361 -357 -215 -37 -429
103 -485 317 -61 236 79 469 320 532 65 17 178 9 248 -17z"/>
</g>
</svg>
